<svg xmlns="http://www.w3.org/2000/svg" width="1000" height="875" fill="none" viewBox="0 0 1000 875">
  <g class="marketing__marketing">
    <g class="marketing__announcements" filter="url(#marketing__a)">
      <path fill="#fff" d="m862.701 402.074-396.066-.13c-6.246 0-11.321 5.057-11.321 11.303l-.112 334.96c0 6.247 5.057 11.322 11.303 11.322l396.066.13c6.246 0 11.322-5.057 11.322-11.303l.111-334.96c.019-6.246-5.056-11.322-11.303-11.322Z"/>
      <path fill="#B4C6DB" d="M839.612 454.908a2.285 2.285 0 0 1 2.287-2.286 2.284 2.284 0 0 1 2.286 2.286 2.286 2.286 0 1 1-4.573 0Zm-8.012 0a2.284 2.284 0 0 1 2.286-2.286 2.286 2.286 0 1 1-2.286 2.286Zm-8.013 0a2.285 2.285 0 0 1 2.287-2.286 2.286 2.286 0 1 1 0 4.573 2.286 2.286 0 0 1-2.287-2.287Z"/>
      <path fill="#F1F2F6" d="M826.041 657.58a2.865 2.865 0 0 1-2.863 2.863l-317.15.111a2.865 2.865 0 0 1-2.863-2.863 2.865 2.865 0 0 1 2.863-2.863l317.15-.111a2.852 2.852 0 0 1 2.863 2.863Z"/>
      <path fill="#BAF3E6" d="M826.041 657.58a2.865 2.865 0 0 1-2.863 2.863l-179.898.074a2.865 2.865 0 0 1-2.863-2.863 2.865 2.865 0 0 1 2.863-2.863l179.898-.074a2.852 2.852 0 0 1 2.863 2.863Z"/>
      <path fill="#F1F2F6" d="M826.041 688.588a2.865 2.865 0 0 1-2.863 2.863l-317.15.112a2.865 2.865 0 0 1-2.863-2.863 2.865 2.865 0 0 1 2.863-2.863l317.15-.112a2.852 2.852 0 0 1 2.863 2.863Z"/>
      <path fill="#76E8CD" d="M826.041 688.588a2.865 2.865 0 0 1-2.863 2.863l-74.342.019a2.865 2.865 0 0 1-2.863-2.863 2.865 2.865 0 0 1 2.863-2.863l74.342-.019a2.852 2.852 0 0 1 2.863 2.863Z"/>
      <path fill="#F1F2F6" d="M826.041 719.597a2.865 2.865 0 0 1-2.863 2.863l-317.15.111a2.864 2.864 0 0 1 0-5.725l317.15-.112a2.852 2.852 0 0 1 2.863 2.863Z"/>
      <path fill="#004956" d="M826.041 719.597a2.865 2.865 0 0 1-2.863 2.863l-259.966.093a2.864 2.864 0 0 1 0-5.726l259.966-.093a2.852 2.852 0 0 1 2.863 2.863Z"/>
      <path fill="#BAF3E6" d="M724.687 573.793c.446-.558.855-1.152 1.283-1.71 1.078-1.432 2.1-2.9 3.086-4.425.39-.613.799-1.227 1.189-1.859a73.951 73.951 0 0 0 3.402-6.209c.205-.446.391-.892.595-1.338a72.44 72.44 0 0 0 2.343-5.652c.223-.632.464-1.264.688-1.896.78-2.342 1.505-4.703 2.063-7.139.056-.26.093-.52.149-.78.502-2.231.874-4.499 1.171-6.805.093-.669.167-1.338.242-2.007.26-2.566.446-5.15.446-7.79 0-2.435-.149-4.815-.372-7.194-3.625-38.984-36.4-69.509-76.332-69.509-42.348 0-76.685 34.336-76.685 76.685 0 24.929 11.954 47.015 30.377 61.013.929.707 1.822 1.432 2.788 2.082.949.651 1.934 1.246 2.919 1.878a100.12 100.12 0 0 0 3.012 1.84c.985.558 1.989 1.06 3.011 1.58a77.296 77.296 0 0 0 3.309 1.599c1.004.446 2.027.874 3.049 1.283 1.19.483 2.417.911 3.644 1.339 1.004.334 2.008.669 3.03.966 1.339.391 2.677.725 4.053 1.041.967.223 1.915.465 2.9.651 1.561.297 3.123.52 4.722.725.836.111 1.636.26 2.472.335a75.19 75.19 0 0 0 7.399.371c2.51 0 4.964-.13 7.399-.371.837-.075 1.655-.224 2.473-.335 1.58-.205 3.16-.428 4.722-.725.985-.186 1.933-.428 2.9-.651a75.421 75.421 0 0 0 4.052-1.041c1.023-.297 2.027-.632 3.031-.966a66.076 66.076 0 0 0 3.643-1.339c.075-.037.149-.056.223-.093v.019l.502-.223c.781-.316 1.562-.632 2.324-.967.502-.223.985-.483 1.487-.707.502-.241 1.023-.483 1.525-.743.111-.056.204-.093.316-.149 1.004-.52 2.026-1.022 3.011-1.58.242-.13.465-.279.688-.409.446-.26.874-.521 1.302-.799.353-.224.706-.409 1.041-.633.985-.613 1.97-1.208 2.918-1.859.967-.669 1.878-1.394 2.826-2.1.205-.149.409-.316.614-.465l1.171-.892c.316-.242.632-.465.948-.725.483-.391.911-.856 1.376-1.283a76.081 76.081 0 0 0 3.364-3.123c.632-.614 1.265-1.227 1.859-1.859a104.45 104.45 0 0 0 4.332-5.057Z"/>
      <path fill="#004956" d="M641.105 537.245c.335.576.948.929 1.617.929.316 0 .651-.093.93-.242a1.88 1.88 0 0 0 .688-2.565 1.896 1.896 0 0 0-1.134-.855c-.484-.13-1.004-.075-1.413.167a1.855 1.855 0 0 0-.874 1.134 1.93 1.93 0 0 0 .186 1.432Z"/>
      <path fill="#004956" d="m687.451 515.457 3.718-5.615a1.88 1.88 0 0 0 .055-1.97l-3.532-6.116c-.334-.577-.966-.93-1.729-.93l-6.711.409-6.469-11.21a5.427 5.427 0 0 0-4.666-2.695c-1.859 0-3.551.929-4.518 2.454l-23.07 29.335-14.947 8.626c-2.881 1.655-4.926 4.35-5.8 7.548-.855 3.216-.428 6.581 1.245 9.443a12.523 12.523 0 0 0 10.801 6.228c1.562 0 3.068-.279 4.518-.855l8.83 15.3a7.215 7.215 0 0 0 6.228 3.588 7.144 7.144 0 0 0 3.569-.967 7.162 7.162 0 0 0 3.347-4.35 7.106 7.106 0 0 0-.707-5.428l-5.242-9.072 4.48-2.584a1.879 1.879 0 0 0 .688-2.547l-2.213-3.849 33.612-6.599a5.313 5.313 0 0 0 4.443-2.826 5.36 5.36 0 0 0-.074-5.261l-5.856-10.057Zm-6.117-10.597 3.7-.223 2.379 4.109-2.045 3.086-4.034-6.972Zm6.767 25.116-.372.074-21.62-37.441.297-.39c.205-.242.223-.298.261-.353.297-.502.836-.8 1.394-.8h.037c.595 0 1.115.316 1.413.818l20.505 35.526c.297.502.298 1.116.019 1.636a1.583 1.583 0 0 1-1.395.837c-.111.018-.186.018-.539.093Zm-42.534 14.984 8.756 15.169c.464.781.576 1.711.334 2.603a3.45 3.45 0 0 1-1.598 2.082c-1.581.911-3.774.316-4.667-1.246l-8.756-15.169 5.931-3.439Zm6.116-3.514 1.654 2.863-2.863 1.654-1.654-2.862 2.863-1.655Zm-7.641-20.728 19.594-24.948 20.227 35.042-30.544 5.986-9.277-16.08Zm5.763 17.475-13.645 7.882a8.707 8.707 0 0 1-4.332 1.171 8.797 8.797 0 0 1-7.566-4.35 8.723 8.723 0 0 1-1.171-4.35 8.744 8.744 0 0 1 4.35-7.548l13.645-7.882 8.719 15.077Z"/>
      <path fill="#004956" d="m635.695 538.211-3.049 1.766a1.68 1.68 0 0 1-1.245.149c-.428-.111-.8-.39-1.004-.744-.502-.873-1.673-1.189-2.547-.687-.427.241-.744.65-.874 1.134-.13.483-.055.985.186 1.412a5.442 5.442 0 0 0 4.685 2.696 5.39 5.39 0 0 0 2.696-.725l3.048-1.766c.428-.26.744-.651.874-1.134.13-.483.056-.985-.186-1.413-.539-.874-1.71-1.19-2.584-.688Zm73.897-46.383c-.484-.892-1.655-1.208-2.547-.725l-9.816 5.466a1.835 1.835 0 0 0-.892 1.115c-.13.484-.075.986.167 1.432a1.87 1.87 0 0 0 1.636.967c.316 0 .632-.075.911-.242l9.816-5.466a1.83 1.83 0 0 0 .892-1.115 1.765 1.765 0 0 0-.167-1.432Zm-3.496 17.531-6.804-1.822a1.868 1.868 0 0 0-.966 3.607l6.804 1.822c.167.037.316.055.483.055a1.89 1.89 0 0 0 1.803-1.375 1.787 1.787 0 0 0-.185-1.413 1.854 1.854 0 0 0-1.135-.874Zm-17.735-15.486a1.886 1.886 0 0 0 2.287-1.338l1.822-6.804a1.87 1.87 0 0 0-1.32-2.287c-.465-.13-.967-.056-1.413.186a1.844 1.844 0 0 0-.874 1.134l-1.821 6.804a1.87 1.87 0 0 0 .185 1.413 1.82 1.82 0 0 0 1.134.892Z"/>
    </g>
    <g class="marketing__campaign" filter="url(#marketing__b)">
      <path fill="#fff" d="m31.768 528.34 396.066-.131c6.246 0 11.321 5.057 11.321 11.322l.093 302.13c0 6.246-5.056 11.321-11.321 11.321l-396.066.13c-6.247 0-11.322-5.056-11.322-11.303l-.093-302.129c0-6.284 5.075-11.34 11.322-11.34Z" class="marketing__Vector"/>
      <path fill="#CBCBCB" d="M55.377 582.884a2.285 2.285 0 0 1-2.286-2.287 2.285 2.285 0 0 1 2.286-2.286 2.285 2.285 0 0 1 2.287 2.286c0 1.246-1.023 2.268-2.287 2.287Zm8.013-.019a2.285 2.285 0 0 1-2.287-2.286 2.285 2.285 0 0 1 2.287-2.287 2.285 2.285 0 0 1 2.286 2.287 2.284 2.284 0 0 1-2.286 2.286Zm7.994 0a2.284 2.284 0 0 1-2.287-2.286 2.285 2.285 0 0 1 2.287-2.287 2.285 2.285 0 0 1 2.286 2.287c.019 1.264-1.022 2.286-2.286 2.286Z" class="marketing__Vector"/>
      <g class="marketing__Toogle_00000028301164372554175240000004643831596604234631">
        <g class="marketing__Vector">
          <path fill="#fff" d="M103.256 649.034c.008 9.366-7.6 16.979-16.966 16.987l-16.965.003c-9.366.008-16.98-7.599-16.988-16.965-.008-9.366 7.6-16.979 16.966-16.987l16.966-.004c9.384-.004 17 7.585 16.987 16.966Z"/>
          <path fill="#F1F2F6" d="M100.459 649.028c0 8.217-6.655 14.872-14.872 14.872-8.217 0-14.873-6.655-14.873-14.872 0-8.217 6.656-14.872 14.873-14.872 8.198 0 14.872 6.655 14.872 14.872Z"/>
        </g>
      </g>
      <g class="marketing__Toogle-2_00000157298475824674202100000008776829068504271016">
        <g class="marketing__Group">
          <path fill="#fff" d="M103.093 718.43c.008 9.366-7.6 16.98-16.966 16.988l-16.965.003c-9.366.008-16.98-7.6-16.988-16.966-.008-9.366 7.6-16.979 16.966-16.987l16.966-.003c9.384-.005 16.982 7.581 16.987 16.965Z" class="marketing__Rectangle_11-6_00000183938861853820961510000000684313281792417946"/>
        </g>
        <path fill="#BAF3E6" d="M85.53 718.426c0 8.217-6.654 14.872-14.871 14.872s-14.873-6.655-14.873-14.872c0-8.217 6.656-14.872 14.873-14.872 8.216 0 14.872 6.655 14.872 14.872Z" class="marketing__Rectangle_11-7_00000173134973623666624930000000131825552688850049"/>
      </g>
      <g class="marketing__Toogle-3_00000037656707690986022700000001966208608394353841">
        <g class="marketing__Group">
          <path fill="#fff" d="M102.93 787.826c.008 9.366-7.6 16.98-16.965 16.988l-16.966.003c-9.366.008-16.98-7.6-16.987-16.966-.008-9.366 7.6-16.979 16.965-16.987l16.966-.003c9.384-.005 16.982 7.581 16.987 16.965Z" class="marketing__Rectangle_11-8_00000147208433505084731860000004038090347257889414"/>
        </g>
        <path fill="#BAF3E6" d="M85.568 787.767c0 8.217-6.655 14.873-14.872 14.873-8.217 0-14.872-6.656-14.872-14.873 0-8.217 6.655-14.872 14.872-14.872 8.198 0 14.872 6.655 14.872 14.872Z" class="marketing__Rectangle_11-9_00000085954338209662946870000004910887537458733758"/>
      </g>
      <g class="marketing__Vector">
        <path fill="#004956" d="M402.44 637.465c-2.659-2.658-6.209-4.109-9.983-4.127-3.756 0-7.306 1.469-10.002 4.108-2.695 2.659-4.164 6.191-4.164 9.928 0 2.268.595 4.554 1.729 6.636l-1.692 7.659 7.752-1.766a14.267 14.267 0 0 0 6.358 1.506c3.755 0 7.306-1.468 10.002-4.108 2.695-2.659 4.164-6.191 4.164-9.927.019-3.681-1.469-7.213-4.164-9.909Z"/>
        <path fill="#fff" d="M388.59 641.202h-.614c-.223 0-.576.074-.855.409-.297.316-1.134 1.096-1.134 2.695 0 1.599 1.153 3.123 1.32 3.346.167.224 2.25 3.588 5.54 4.871 2.733 1.078 3.291.855 3.885.799.595-.055 1.915-.78 2.194-1.543.279-.762.279-1.394.186-1.543-.074-.13-.297-.223-.613-.371-.317-.168-1.915-.948-2.213-1.06-.297-.112-.52-.167-.725.167a21.703 21.703 0 0 1-1.041 1.283c-.186.223-.372.242-.706.074-.316-.167-1.357-.502-2.603-1.617-.967-.855-1.636-1.952-1.822-2.268-.186-.316-.018-.502.149-.651.149-.148.335-.334.502-.539.167-.186.204-.316.316-.539.112-.223.056-.409-.019-.558-.074-.167-.706-1.766-.985-2.398-.279-.52-.52-.539-.762-.557Z"/>
        <path fill="#BAF3E6" d="M361.653 646.24h-52.778a3.618 3.618 0 0 1-3.625-3.626 3.618 3.618 0 0 1 3.625-3.625h52.778a3.619 3.619 0 0 1 3.625 3.625 3.63 3.63 0 0 1-3.625 3.626Z"/>
        <path fill="#F1F2F6" d="M361.653 659.234H235.387a3.618 3.618 0 0 1-3.625-3.625 3.618 3.618 0 0 1 3.625-3.625h126.266a3.618 3.618 0 0 1 3.625 3.625 3.618 3.618 0 0 1-3.625 3.625Z"/>
      </g>
      <g class="marketing__Vector">
        <path fill="#BAF3E6" d="M361.652 719.708h-87.876a3.617 3.617 0 0 1-3.625-3.625 3.618 3.618 0 0 1 3.625-3.625h87.876a3.618 3.618 0 0 1 3.625 3.625 3.629 3.629 0 0 1-3.625 3.625Z"/>
        <path fill="#F1F2F6" d="M361.652 732.703H172.18a3.617 3.617 0 0 1-3.625-3.625 3.617 3.617 0 0 1 3.625-3.625h189.472a3.617 3.617 0 0 1 3.625 3.625 3.617 3.617 0 0 1-3.625 3.625Z"/>
        <path fill="#004956" d="M388.943 736.347v-11.861h-3.7v-4.982h3.7v-4.239c0-3.327 2.212-6.469 7.194-6.469 2.027 0 3.514.186 3.514.186l-.186 4.61h-3.142c-1.84 0-2.026.744-2.026 2.212v3.7h5.354l-.186 4.982h-5.168v11.861h-5.354Z"/>
      </g>
      <g class="marketing__Vector">
        <path fill="#BAF3E6" d="M361.653 789.311h-52.778a3.618 3.618 0 0 1-3.625-3.625 3.617 3.617 0 0 1 3.625-3.625h52.778a3.618 3.618 0 0 1 3.625 3.625 3.63 3.63 0 0 1-3.625 3.625Z"/>
        <path fill="#F1F2F6" d="M361.653 802.305H235.387a3.618 3.618 0 0 1-3.625-3.625 3.619 3.619 0 0 1 3.625-3.625h126.266a3.619 3.619 0 0 1 3.625 3.625 3.618 3.618 0 0 1-3.625 3.625Z"/>
        <path fill="#004956" d="M381.73 801.636c.335 1.45.688 2.064 2.603 1.748.558-.093 1.245-.205 2.1-.075 1.413.242 5.169 5.02 10.504.8 1.041-.725 1.617-1.134 3.625-.744.874.167 2.008-.019 2.566-1.748 5.279-.948 4.145-3.866 2.565-4.108-2.751-.446-4.573-3.29-4.759-4.183.186-.111.613-.26.892-.353 4.462-1.543 1.971-5.298-1.059-4.127.204-3.16.26-5.689-2.324-8.124-2.752-2.565-6.99-2.696-9.76-1.469-4.834 2.12-4.796 6.209-4.573 9.649-1.934-.744-3.235.316-3.439 1.413-.317 1.71 1.319 2.286 2.305 2.639.334.112.911.316 1.004.391-.112.13-.725 2.844-4.351 4.052-.687.224-1.357.447-1.635 1.079-.168.372-.149.799.037 1.264.483 1.115 2.082 1.599 3.699 1.896Z"/>
      </g>
      <g class="marketing__Vector">
        <path fill="#004956" d="m195.548 583.813-.13 2.64-.353.074c-2.38 0-3.588-1.189-3.886-3.141-.427 1.078-1.357 1.877-3.067 1.877-2.287 0-3.83-1.468-3.83-3.736 0-2.473 1.767-4.462 6.656-5.429v-1.45h2.1v7.102c0 1.747.837 2.007 2.157 2.007l.353.056Zm-4.592-2.138v-3.104c-3.625.65-4.777 1.636-4.777 2.602 0 .893 1.022 1.302 2.231 1.302 1.301 0 2.156-.372 2.546-.8Zm-4.387-9.351c0-.613.502-1.115 1.115-1.115.614 0 1.097.502 1.097 1.115 0 .614-.464 1.116-1.097 1.116a1.131 1.131 0 0 1-1.115-1.116Zm2.807 0c0-.613.465-1.115 1.116-1.115.613 0 1.096.502 1.096 1.115 0 .614-.483 1.116-1.096 1.116-.651 0-1.116-.484-1.116-1.116Z"/>
        <path fill="#004956" d="m202.241 583.813-.13 2.659-.354.055c-1.766 0-2.993-.65-3.476-2.026-.428 1.227-1.487 2.026-3.216 2.026l-.353-.055.13-2.659.353-.056c1.506 0 2.287-.278 2.287-2.044v-2.938h2.119v2.863c0 1.822.632 2.119 2.268 2.119l.372.056Zm-3.96 5.261c0 .614-.465 1.097-1.097 1.097a1.103 1.103 0 0 1-1.115-1.097c0-.613.502-1.115 1.115-1.115.614 0 1.097.502 1.097 1.115Zm2.789 0c0 .614-.484 1.097-1.097 1.097-.651 0-1.116-.465-1.116-1.097 0-.613.465-1.115 1.116-1.115.613-.019 1.097.502 1.097 1.115Z"/>
        <path fill="#004956" d="m212.93 583.813-.13 2.659-.353.055c-1.952 0-3.811-.371-5.354-1.022-1.283.595-3.105 1.022-5.336 1.022l-.353-.055.13-2.659.353-.056c.818 0 1.599-.037 2.361-.13-.762-.818-1.208-1.766-1.208-2.807 0-2.417 1.655-4.74 4.332-4.74 2.398 0 3.997 2.138 3.997 4.406 0 1.227-.502 2.249-1.395 3.123.8.111 1.673.148 2.621.148l.335.056Zm-8.068-10.392c0-.613.502-1.115 1.115-1.115.614 0 1.097.52 1.097 1.115 0 .614-.465 1.134-1.097 1.134-.613 0-1.115-.52-1.115-1.134Zm2.305 9.611c1.413-.483 2.324-1.208 2.324-2.082 0-1.078-.892-2.082-2.287-2.082-1.375 0-2.305.967-2.305 1.934 0 .948.818 1.71 2.268 2.23Zm.502-9.611c0-.613.465-1.115 1.115-1.115.614 0 1.097.52 1.097 1.115 0 .614-.483 1.134-1.097 1.134-.65 0-1.115-.502-1.115-1.134Z"/>
        <path fill="#004956" d="m212.112 586.416.13-2.528.353-.131c1.506 0 2.231-.557 2.231-1.747 0-1.004-.316-2.528-.595-3.811l2.027-.576c.353 1.208.669 2.788.669 4.201 0 2.993-1.636 4.703-4.462 4.703l-.353-.111Zm.075 2.658c0-.613.52-1.115 1.134-1.115.613 0 1.096.502 1.096 1.115 0 .614-.464 1.097-1.096 1.097-.633 0-1.134-.483-1.134-1.097Zm2.788 0c0-.613.465-1.115 1.115-1.115.614 0 1.097.502 1.097 1.115 0 .614-.483 1.097-1.097 1.097-.632 0-1.115-.465-1.115-1.097Zm13.924-5.317.353.186-.13 2.399-.353.204h-1.431c-.763 2.528-2.677 4.517-6.526 4.517-1.264 0-2.454-.204-2.993-.371l.186-2.473c.688.093 1.655.242 2.863.242 2.696 0 4.164-.967 4.778-2.082h-2.789c-2.584 0-3.755-1.58-3.755-3.514 0-2.788 1.841-5.019 4.406-5.019 2.696 0 4.201 2.64 4.201 5.893v.018h1.19Zm-5.726 0h2.789c-.205-1.654-1.041-3.197-2.658-3.197-1.581 0-2.361 1.153-2.361 2.045.018.762.873 1.152 2.23 1.152Z"/>
        <path fill="#004956" d="m247.638 583.813-.13 2.659-.353.055c-2.045 0-3.216-.632-3.625-1.877-.391 1.264-1.395 1.877-2.789 1.877-1.561 0-2.509-.594-2.9-1.803-.427 1.227-1.45 1.803-2.863 1.803-1.468 0-2.528-.576-2.974-1.84-.409 1.246-1.543 1.84-3.254 1.84l-.353-.055.13-2.659.354-.056c1.505 0 2.398-.278 2.398-1.691v-2.175h2.119v2.175c0 1.413.744 1.691 1.859 1.691 1.097 0 1.841-.278 1.841-1.691v-2.175h2.119v2.175c0 1.413.688 1.691 1.784 1.691.986 0 1.711-.278 1.711-1.691v-2.175h2.119v2.175c0 1.32.762 1.691 2.417 1.691l.39.056Z"/>
        <path fill="#004956" d="m254.331 583.813-.13 2.659-.354.055c-1.766 0-2.993-.65-3.476-2.026-.428 1.227-1.487 2.026-3.216 2.026l-.353-.055.13-2.659.353-.056c1.506 0 2.287-.278 2.287-2.044v-2.938h2.119v2.863c0 1.822.632 2.119 2.268 2.119l.372.056Zm-6.228-7.715c0-.613.52-1.115 1.115-1.115.614 0 1.097.502 1.097 1.115 0 .614-.465 1.116-1.097 1.116-.595.018-1.115-.502-1.115-1.116Zm2.807 0c0-.613.465-1.115 1.116-1.115.613 0 1.096.502 1.096 1.115 0 .614-.483 1.116-1.096 1.116-.651.018-1.116-.465-1.116-1.116Z"/>
        <path fill="#004956" d="M258.328 571.897v9.853c0 3.402-1.934 4.777-4.481 4.777l-.353-.055.13-2.659.353-.056c1.376 0 2.157-.316 2.157-1.859v-10.001h2.194Zm2.825 14.649v-14.649h2.213v14.649h-2.213Zm19.966-2.733-.13 2.64-.353.074c-2.38 0-3.588-1.189-3.885-3.141-.428 1.078-1.357 1.877-3.068 1.877-2.286 0-3.829-1.468-3.829-3.736 0-2.473 1.766-4.462 6.655-5.429v-1.45h2.101v7.102c0 1.747.836 2.007 2.156 2.007l.353.056Zm-4.61-2.138v-3.104c-3.625.65-4.778 1.636-4.778 2.602 0 .893 1.023 1.302 2.231 1.302 1.301 0 2.157-.372 2.547-.8Zm-4.369-9.351c0-.613.502-1.115 1.116-1.115.613 0 1.096.502 1.096 1.115 0 .614-.464 1.116-1.096 1.116a1.119 1.119 0 0 1-1.116-1.116Zm2.807 0c0-.613.465-1.115 1.116-1.115.613 0 1.097.502 1.097 1.115 0 .614-.484 1.116-1.097 1.116-.651 0-1.116-.484-1.116-1.116Z"/>
        <path fill="#004956" d="m287.793 583.813-.13 2.659-.353.055c-1.785 0-3.012-.65-3.495-2.007-.409 1.227-1.469 2.007-3.198 2.007l-.353-.055.13-2.659.354-.056c1.487 0 2.23-.278 2.23-2.044v-9.816h2.231v9.741c0 1.822.707 2.119 2.231 2.119l.353.056Z"/>
        <path fill="#004956" d="m300.862 583.813-.13 2.659-.353.055c-1.45 0-2.584-.613-3.068-1.84-.52.985-1.766 1.915-3.718 1.915-1.58 0-2.714-.558-3.383-1.469-.558.892-1.617 1.394-2.9 1.394l-.353-.055.13-2.659.353-.056c.985 0 1.71-.185 2.101-.65-.019-.13-.019-.223-.019-.353 0-2.715 1.896-4.983 4.573-4.983 2.064 0 3.44 1.357 4.22 3.942.465 1.58.986 2.044 2.194 2.044l.353.056Zm-4.313-.911c-.446-1.431-1.301-2.361-2.733-2.361-1.394 0-2.435.874-2.435 1.989 0 .8.818 1.32 2.361 1.32 1.506 0 2.38-.464 2.807-.948Z"/>
        <path fill="#004956" d="m316.348 583.813-.13 2.659-.353.055c-3.179 0-3.942-1.505-4.053-3.904h-.614c-4.573 3.291-7.175 3.904-10.819 3.904l-.353-.055.13-2.659.353-.056c2.324 0 4.945-.148 9.109-2.249-.279-.13-.595-.26-.911-.428-1.171-.557-2.379-1.115-3.885-1.115-1.376 0-2.287.539-2.844.892l-.856-1.821c.484-.726 1.99-1.767 3.96-1.767 1.971 0 3.179.874 4.332 1.506 1.691.93 2.063 1.041 3.309 1.041h2.212l-.204 2.807h-1.543c.316.837 1.078 1.116 2.807 1.116l.353.074Z"/>
        <path fill="#004956" d="M320.363 571.897v9.853c0 3.402-1.933 4.777-4.48 4.777l-.353-.055.13-2.659.353-.056c1.376 0 2.157-.316 2.157-1.859v-10.001h2.193Zm2.808 14.649v-14.649h2.212v14.649h-2.212Zm20.691 5.131c-.632.335-2.696 1.338-5.912 1.338-3.848 0-6.135-1.84-6.135-4.87 0-1.989.818-3.477 2.751-4.685-1.078-.725-1.747-1.896-1.747-3.551 0-2.398 1.747-4.777 4.61-4.777 1.971 0 3.291 1.338 3.811 2.193l-1.208 1.748c-.539-.484-1.487-1.171-2.621-1.171-1.599 0-2.64 1.003-2.64 2.193 0 1.376 1.171 2.064 2.603 2.119 1.264-.446 2.807-.836 4.573-1.189l.39 2.509c-6.042 1.488-8.589 2.566-8.589 4.369 0 1.171 1.042 2.361 4.425 2.361 2.603 0 4.685-.706 5.298-.967l.391 2.38Zm11.358-7.92.353.186-.13 2.399-.353.204h-1.431c-.763 2.528-2.677 4.517-6.526 4.517-1.264 0-2.453-.204-2.993-.371l.186-2.473c.688.093 1.655.242 2.863.242 2.696 0 4.164-.967 4.778-2.082h-2.789c-2.584 0-3.755-1.58-3.755-3.514 0-2.788 1.841-5.019 4.406-5.019 2.696 0 4.201 2.64 4.201 5.893v.018h1.19Zm-5.726 0h2.789c-.205-1.654-1.041-3.197-2.658-3.197-1.581 0-2.361 1.153-2.361 2.045 0 .762.855 1.152 2.23 1.152Z"/>
        <path fill="#004956" d="m354.755 586.416.131-2.528.353-.131c1.506 0 2.231-.557 2.231-1.747 0-1.004-.316-2.528-.595-3.811l2.026-.576c.353 1.208.669 2.788.669 4.201 0 2.993-1.636 4.703-4.461 4.703l-.354-.111Zm1.841-11.284c0-.67.502-1.246 1.264-1.246.744 0 1.246.576 1.246 1.246 0 .669-.502 1.245-1.246 1.245a1.226 1.226 0 0 1-1.264-1.245Zm9.221 6.543 1.84-.074c-.056 2.026 1.116 2.305 2.882 2.305 1.933 0 2.881-.539 2.881-1.506 0-1.264-1.413-2.881-4.09-5.131l1.562-2.045c2.379 1.841 4.499 4.295 4.499 7.065 0 2.807-1.562 4.461-5.038 4.461-4.164-.037-4.704-2.398-4.536-5.075Zm23.814 2.138-.13 2.659-.353.055c-2.027 0-2.938-.892-3.681-2.472-.558 1.71-1.971 2.658-4.22 2.658-4.034 0-4.555-2.379-4.406-5.056l1.84-.075c-.056 2.027 1.19 2.306 2.845 2.306 1.617 0 2.695-.502 2.881-1.432l-3.03-6.283 2.156-.986 3.012 6.321c.762 1.58 1.19 2.231 2.714 2.231l.372.074Z"/>
        <path fill="#004956" d="m403.704 579.835-.205 2.807h-3.513c-4.574 3.291-7.176 3.904-10.82 3.904l-.353-.056.13-2.658.353-.056c2.324 0 4.945-.149 9.11-2.249-.279-.131-.595-.261-.911-.428-1.172-.558-2.38-1.115-3.886-1.115-1.375 0-2.286.539-2.844.892l-.855-1.822c.483-.725 1.989-1.766 3.959-1.766 1.971 0 3.179.874 4.332 1.506 1.692.929 2.064 1.041 3.309 1.041h2.194Z"/>
      </g>
    </g>
    <g class="marketing__carts">
      <path fill="#BAF3E6" d="m21.433 379.058 396.066-.13c6.247 0 11.322 5.056 11.322 11.303l.037 101.837c0 6.247-5.056 11.322-11.303 11.322l-396.066.13c-6.247 0-11.322-5.057-11.322-11.322l-.037-101.837c0-6.228 5.057-11.303 11.303-11.303Z"/>
      <path fill="#fff" d="M57.628 469.834a2.864 2.864 0 0 1-2.862-2.863v-22.884a2.864 2.864 0 0 1 2.862-2.863 2.864 2.864 0 0 1 2.863 2.863v22.884a2.852 2.852 0 0 1-2.863 2.863Zm20.004-3.681a2.864 2.864 0 0 1-5.726 0l-.019-44.114a2.864 2.864 0 0 1 5.726 0l.019 44.114Zm17.158 0a2.864 2.864 0 0 1-5.726 0l-.018-31.863a2.864 2.864 0 0 1 5.726 0l.018 31.863Zm17.159 0a2.864 2.864 0 0 1-5.726 0l-.018-47.386a2.865 2.865 0 0 1 2.863-2.863 2.865 2.865 0 0 1 2.863 2.863l.018 47.386Zm14.296 2.845a2.865 2.865 0 0 1-2.863-2.863l-.018-40.044a2.864 2.864 0 0 1 5.725 0l.019 40.044a2.865 2.865 0 0 1-2.863 2.863Zm20.022-2.863a2.865 2.865 0 0 1-2.863 2.863 2.865 2.865 0 0 1-2.863-2.863l-.019-50.659a2.864 2.864 0 0 1 5.726 0l.019 50.659Zm17.159 0a2.865 2.865 0 0 1-2.863 2.863 2.865 2.865 0 0 1-2.863-2.863V447.34a2.865 2.865 0 0 1 2.863-2.863 2.865 2.865 0 0 1 2.863 2.863v18.795Zm14.296 2.844a2.864 2.864 0 0 1-2.863-2.863l-.019-40.043a2.865 2.865 0 0 1 2.863-2.863 2.865 2.865 0 0 1 2.863 2.863l.019 40.043a2.865 2.865 0 0 1-2.863 2.863Zm20.021-2.863a2.864 2.864 0 0 1-5.725 0v-25.32a2.864 2.864 0 0 1 5.725 0v25.32Zm14.296 2.863a2.865 2.865 0 0 1-2.863-2.863l-.018-40.043a2.865 2.865 0 0 1 2.863-2.863 2.865 2.865 0 0 1 2.863 2.863l.018 40.043a2.864 2.864 0 0 1-2.863 2.863Z"/>
      <path fill="#004956" d="M372.604 462.807c.204-.26.39-.52.576-.781.483-.65.948-1.32 1.394-2.007.186-.279.372-.558.539-.837a31.296 31.296 0 0 0 1.543-2.807c.093-.205.186-.409.279-.595.391-.837.744-1.692 1.06-2.565.112-.279.204-.577.316-.856.353-1.059.688-2.137.93-3.234.018-.112.037-.242.074-.354.223-1.003.39-2.044.52-3.086.038-.297.075-.594.112-.91.112-1.172.204-2.343.204-3.533 0-1.096-.055-2.193-.167-3.253-1.636-17.679-16.508-31.51-34.615-31.51-19.204 0-34.764 15.56-34.764 34.782 0 11.303 5.41 21.323 13.776 27.662.427.316.836.651 1.264.948.427.298.873.577 1.32.856.446.278.911.576 1.375.836.446.26.911.484 1.357.725.502.26.986.502 1.506.725.465.205.911.391 1.376.577a24.61 24.61 0 0 0 1.654.594c.465.149.911.298 1.376.447.595.186 1.208.334 1.841.464.446.093.873.205 1.319.298.707.13 1.413.241 2.138.334.372.056.744.112 1.116.149 1.097.112 2.231.167 3.365.167 1.134 0 2.249-.055 3.364-.167.372-.037.744-.111 1.116-.149.725-.093 1.431-.185 2.138-.334.446-.093.873-.205 1.32-.298a65.155 65.155 0 0 0 1.84-.464c.465-.131.911-.279 1.376-.447.557-.185 1.115-.39 1.654-.594a.314.314 0 0 1 .093-.038c.075-.037.149-.074.223-.093.354-.148.707-.278 1.041-.446.223-.093.447-.223.67-.316.223-.111.464-.223.687-.334.038-.019.093-.038.149-.075.465-.241.911-.465 1.357-.706.112-.056.205-.13.316-.186.205-.112.391-.242.595-.353.149-.093.316-.186.465-.279.446-.279.892-.539 1.32-.837.446-.297.855-.632 1.283-.948.093-.074.186-.149.278-.204.168-.13.354-.261.54-.409.148-.112.297-.205.427-.335.223-.186.409-.39.632-.576.521-.465 1.041-.93 1.525-1.413.279-.279.576-.558.836-.837.688-.836 1.339-1.598 1.971-2.398Z"/>
      <path fill="#BAF3E6" d="M367.082 434.494a3.248 3.248 0 0 0-.557-1.208 3.175 3.175 0 0 0-1.023-.837 2.905 2.905 0 0 0-1.301-.297h-8.161l-5.484-9.686-2.659 1.506 4.629 8.18h-14.909l4.61-8.18v-.019a1.527 1.527 0 0 0-.595-2.082 1.528 1.528 0 0 0-2.082.595l-5.465 9.686h-7.529c-.242 0-.484.037-.707.093a2.949 2.949 0 0 0-2.156 3.569l5.391 21.602a4.395 4.395 0 0 0 4.294 3.346h23.982a4.34 4.34 0 0 0 2.714-.948l-1.636-2.082 1.636 2.064a4.405 4.405 0 0 0 1.562-2.417l5.391-21.602c.13-.391.13-.837.055-1.283Zm-36.511 22.55.186-.056.613-.148-.799.204Zm28.815-.186.669.168.13.037-.799-.205Zm-.688-.167a1.34 1.34 0 0 1-.483.744 1.398 1.398 0 0 1-.837.297h-23.981a1.353 1.353 0 0 1-1.32-1.041l-5.373-21.472h37.367l-5.373 21.472Z"/>
      <path fill="#BAF3E6" d="M348.455 421.89c-.019 0-.019 0 0 0-.744.409-.985 1.357-.576 2.082l2.658-1.506c-.427-.725-1.357-.985-2.082-.576Z"/>
      <path fill="#FF004C" d="M315.104 429.642c6.396 0 11.582-5.185 11.582-11.582 0-6.396-5.186-11.581-11.582-11.581-6.396 0-11.582 5.185-11.582 11.581 0 6.397 5.186 11.582 11.582 11.582Z"/>
    </g>
    <g class="marketing__product_options">
      <path fill="#004956" d="m148.853.762 383.238-.13c6.042 0 10.95 4.908 10.95 10.95l.112 337.246c0 6.042-4.908 10.95-10.95 10.95l-383.239.13c-6.042 0-10.95-4.908-10.95-10.95l-.111-337.246c0-6.042 4.889-10.95 10.95-10.95Z"/>
      <path fill="#BAF3E6" d="M172.667 48.67a2.206 2.206 0 0 1-2.213-2.213c0-1.227.986-2.212 2.213-2.212s2.212.985 2.212 2.212a2.205 2.205 0 0 1-2.212 2.212Zm7.752 0a2.205 2.205 0 0 1-2.212-2.213c0-1.227.985-2.212 2.212-2.212 1.227 0 2.212.985 2.212 2.212a2.23 2.23 0 0 1-2.212 2.212Zm7.733 0a2.205 2.205 0 0 1-2.212-2.213c0-1.227.985-2.212 2.212-2.212 1.227 0 2.213.985 2.213 2.212a2.218 2.218 0 0 1-2.213 2.212Zm322.114 81.796c0 18.33-14.853 33.203-33.202 33.221-18.33 0-33.202-14.853-33.221-33.202 0-18.33 14.854-33.202 33.203-33.22 18.348 0 33.22 14.853 33.22 33.201Z"/>
      <path fill="#004956" d="M483.757 139.334h-13.274a3.324 3.324 0 0 1-3.327-3.328v-9.964a3.325 3.325 0 0 1 3.327-3.328h13.274a3.325 3.325 0 0 1 3.327 3.328v9.964a3.324 3.324 0 0 1-3.327 3.328Zm-9.407-9.964-4.982 6.636h9.964l-4.982-6.636Zm7.194-3.328a3.324 3.324 0 0 0-3.327 3.328 3.324 3.324 0 0 0 3.327 3.327 3.324 3.324 0 0 0 3.328-3.327 3.324 3.324 0 0 0-3.328-3.328Z"/>
      <path fill="#BAF3E6" d="M510.304 213.472c0 18.33-14.854 33.202-33.203 33.221-18.33 0-33.202-14.854-33.221-33.202 0-18.33 14.854-33.203 33.203-33.221 18.33 0 33.202 14.872 33.221 33.202Z"/>
      <path fill="#004956" d="M469.2 223.158c-.278 0-.557-.112-.743-.316l-2.119-2.12a1.027 1.027 0 0 1-.038-1.45l.038-.037a1.027 1.027 0 0 1 1.45-.037l.037.037 1.375 1.376 3.495-3.495a1.026 1.026 0 0 1 1.45-.037l.038.037c.409.39.427 1.041.037 1.45l-.037.037-4.239 4.239a1.014 1.014 0 0 1-.744.316Z"/>
      <path fill="#004956" d="M485.95 220.128h-7.77a8.237 8.237 0 0 0-2.603-5.503 8.287 8.287 0 0 0-7.343-2.082v-4.592c0-1.227.985-2.212 2.212-2.212h15.504c1.227 0 2.213.985 2.213 2.212v9.964a2.218 2.218 0 0 1-2.213 2.213Zm-14.946-12.456a.834.834 0 0 0-.409 1.562l7.194 3.885a.83.83 0 0 0 .781 0l7.194-3.867a.814.814 0 0 0 .335-1.115.825.825 0 0 0-1.115-.353l-6.804 3.662-6.805-3.662a.583.583 0 0 0-.371-.112Z"/>
      <path fill="#BAF3E6" d="M510.322 296.478c0 18.33-14.854 33.202-33.202 33.221-18.33 0-33.202-14.854-33.221-33.203 0-18.33 14.854-33.202 33.202-33.22 18.349 0 33.221 14.872 33.221 33.202Z"/>
      <path fill="#004956" d="M483.701 307.558h-13.274a3.325 3.325 0 0 1-3.327-3.328v-15.504a3.324 3.324 0 0 1 3.327-3.328h13.274a3.325 3.325 0 0 1 3.328 3.328v15.504a3.325 3.325 0 0 1-3.328 3.328Zm-6.637-11.062a5.825 5.825 0 0 0-3.755 1.246 5.248 5.248 0 0 0-1.766 3.737.619.619 0 0 0 .204.39c.056.074.149.13.242.149h10.15c.13 0 .242-.037.335-.13a.588.588 0 0 0 .13-.428 5.08 5.08 0 0 0-1.729-3.755 5.91 5.91 0 0 0-3.811-1.209Zm0-5.539a2.205 2.205 0 0 0-2.212 2.212c0 1.227.985 2.212 2.212 2.212a2.205 2.205 0 0 0 2.212-2.212 2.205 2.205 0 0 0-2.212-2.212Z"/>
      <path fill="#BAF3E6" d="M419.453 125.057h-52.778a3.618 3.618 0 0 1-3.625-3.625 3.618 3.618 0 0 1 3.625-3.626h52.778a3.618 3.618 0 0 1 3.625 3.626 3.618 3.618 0 0 1-3.625 3.625Zm0 17.753H261.584a3.617 3.617 0 0 1-3.625-3.625 3.618 3.618 0 0 1 3.625-3.625h157.869a3.618 3.618 0 0 1 3.625 3.625 3.617 3.617 0 0 1-3.625 3.625Zm87.151-92.728h-94.067a3.618 3.618 0 0 1-3.625-3.625 3.618 3.618 0 0 1 3.625-3.625h94.067a3.618 3.618 0 0 1 3.625 3.625c.019 2.008-1.617 3.625-3.625 3.625Zm-87.151 159.096H290.306a3.618 3.618 0 0 1-3.625-3.625 3.617 3.617 0 0 1 3.625-3.625h129.147a3.617 3.617 0 0 1 3.625 3.625 3.618 3.618 0 0 1-3.625 3.625Zm0 17.754H189.584a3.618 3.618 0 0 1-3.625-3.626 3.618 3.618 0 0 1 3.625-3.625h229.869a3.618 3.618 0 0 1 3.625 3.625 3.618 3.618 0 0 1-3.625 3.626Zm0 66.367H316.277a3.617 3.617 0 0 1-3.625-3.625 3.617 3.617 0 0 1 3.625-3.625h103.176a3.617 3.617 0 0 1 3.625 3.625 3.63 3.63 0 0 1-3.625 3.625Zm0 17.754H181.832a3.618 3.618 0 0 1-3.625-3.625 3.618 3.618 0 0 1 3.625-3.626h237.621a3.618 3.618 0 0 1 3.625 3.626 3.63 3.63 0 0 1-3.625 3.625Z"/>
    </g>
    <g class="marketing__special_offers" filter="url(#marketing__c)">
      <path fill="#fff" d="M979.656 200.143c0-6.246-5.075-11.322-11.322-11.303l-396.066.13c-6.246 0-11.321 5.075-11.321 11.322l.037 148.313c0 6.246 5.075 11.322 11.321 11.303l396.066-.13c6.247 0 11.322-5.075 11.322-11.322l-.037-148.313Z"/>
      <path fill="#BAF3E6" d="M937.177 302.706c.241-.316.465-.632.706-.948.595-.8 1.153-1.599 1.692-2.436.223-.334.446-.669.651-1.022a47.02 47.02 0 0 0 1.877-3.421l.335-.725a45.398 45.398 0 0 0 1.283-3.105c.13-.353.26-.687.371-1.041a45.14 45.14 0 0 0 1.134-3.922c.038-.149.056-.298.093-.428.279-1.227.484-2.472.632-3.736.056-.372.093-.725.131-1.097.148-1.413.241-2.844.241-4.295a39.79 39.79 0 0 0-.204-3.959c-1.989-21.509-20.041-38.333-42.052-38.333-23.33 0-42.255 18.924-42.255 42.255 0 13.739 6.581 25.897 16.731 33.612.502.39 1.004.78 1.543 1.152.521.353 1.078.688 1.617 1.023.558.353 1.097.687 1.655 1.004.539.297 1.097.594 1.654.873.595.298 1.209.595 1.822.874.558.242 1.116.483 1.673.706.651.261 1.32.502 2.008.725a61.24 61.24 0 0 0 1.673.54c.725.223 1.488.39 2.231.576.539.13 1.06.26 1.599.353.855.167 1.729.279 2.603.39.464.056.91.149 1.357.186 1.338.131 2.695.205 4.071.205s2.733-.074 4.071-.205c.465-.037.911-.13 1.357-.186.874-.111 1.748-.223 2.603-.39.539-.111 1.06-.242 1.599-.353a32.799 32.799 0 0 0 2.231-.576 61.24 61.24 0 0 0 1.673-.54 42.477 42.477 0 0 0 2.007-.725c.038-.018.075-.037.131-.055.092-.038.185-.093.278-.13.428-.168.856-.354 1.283-.54.279-.13.539-.26.818-.39.279-.13.558-.26.837-.409.055-.019.111-.056.167-.074a28.056 28.056 0 0 0 1.654-.874c.131-.074.261-.149.372-.223.242-.149.484-.298.725-.428.186-.111.391-.223.577-.353.539-.335 1.078-.669 1.598-1.022.539-.372 1.041-.763 1.543-1.153.112-.093.223-.167.335-.26.223-.168.428-.335.651-.502.167-.13.353-.261.52-.391.26-.223.502-.483.762-.706a53.674 53.674 0 0 0 1.859-1.729c.354-.335.688-.669 1.023-1.022a31.545 31.545 0 0 0 2.454-2.77Z"/>
      <path fill="#004956" d="M883.085 297.487a2.322 2.322 0 0 1 0-3.29l38.705-38.705 3.29 3.29-38.705 38.705a2.322 2.322 0 0 1-3.29 0Zm38.705-41.995a2.322 2.322 0 0 1 3.29 0 2.322 2.322 0 0 1 0 3.29l-3.29-3.29Zm-38.612 8.607a8.513 8.513 0 0 1 8.514-8.514v4.647a3.864 3.864 0 0 0-3.867 3.867 3.864 3.864 0 0 0 3.867 3.867 3.864 3.864 0 0 0 3.867-3.867 3.864 3.864 0 0 0-3.867-3.867v-4.647a8.513 8.513 0 0 1 8.514 8.514 8.513 8.513 0 0 1-8.514 8.514 8.513 8.513 0 0 1-8.514-8.514Zm24.762 24.781a8.513 8.513 0 0 1 8.514-8.514v4.647a3.864 3.864 0 0 0-3.867 3.867 3.864 3.864 0 0 0 3.867 3.867 3.864 3.864 0 0 0 3.867-3.867 3.864 3.864 0 0 0-3.867-3.867v-4.647a8.513 8.513 0 0 1 8.515 8.514 8.513 8.513 0 0 1-8.515 8.514 8.513 8.513 0 0 1-8.514-8.514Z"/>
      <path fill="#F1F2F6" d="M835.748 236.97H624.786a3.618 3.618 0 0 1-3.626-3.625 3.618 3.618 0 0 1 3.626-3.625h210.962a3.617 3.617 0 0 1 3.625 3.625 3.63 3.63 0 0 1-3.625 3.625Zm0 12.103H624.786a3.619 3.619 0 0 1-3.626-3.625 3.62 3.62 0 0 1 3.626-3.626h210.962a3.618 3.618 0 0 1 3.625 3.626 3.63 3.63 0 0 1-3.625 3.625Zm0 12.102H624.786a3.618 3.618 0 0 1-3.626-3.625 3.618 3.618 0 0 1 3.626-3.625h210.962a3.617 3.617 0 0 1 3.625 3.625 3.617 3.617 0 0 1-3.625 3.625Zm0 13.013H677.879a3.618 3.618 0 0 1-3.625-3.625 3.618 3.618 0 0 1 3.625-3.625h157.869a3.617 3.617 0 0 1 3.625 3.625 3.63 3.63 0 0 1-3.625 3.625Z"/>
      <path fill="#BAF3E6" d="M839.373 295.678v33.22a4.395 4.395 0 0 1-4.387 4.387H625.529a4.395 4.395 0 0 1-4.387-4.387v-33.22a4.395 4.395 0 0 1 4.387-4.387h209.457a4.395 4.395 0 0 1 4.387 4.387Z"/>
      <path fill="#004956" d="M704.557 319.566c-3.291 0-5.169-1.877-5.169-4.685 0-1.617.447-3.048.93-3.996l1.506.539c-.353.799-.688 2.063-.688 2.974 0 1.952 1.338 2.9 3.551 2.9 2.23 0 3.606-.948 3.606-2.677 0-1.227-.353-2.602-.762-4.238l1.747-.465c.428 1.487.763 2.937.763 4.406-.019 3.216-2.027 5.242-5.484 5.242Zm-1.004-11.061c0-.558.409-1.022 1.041-1.022.595 0 1.022.464 1.022 1.022s-.427 1.022-1.022 1.022a1.011 1.011 0 0 1-1.041-1.022Zm16.359 5.354c0 2.064-1.301 3.049-3.476 3.049h-4.611v-2.212l4.109-2.956c-1.246-.893-2.882-1.934-5.131-3.384l1.022-1.766c2.287 1.58 4.276 2.882 5.726 3.923.335-.372.391-.707.391-1.246v-4.313h1.803v3.495c0 1.339-.205 2.101-1.134 2.919.781.725 1.301 1.561 1.301 2.491Zm-7.51-8.143c-.502 0-.874.112-1.097.224v-1.209a2.246 2.246 0 0 1 1.264-.409c.781 0 1.376.316 2.194.316.483 0 .799-.074 1.022-.148v1.226c-.242.168-.688.316-1.301.316-.837.019-1.469-.316-2.082-.316Zm4.257 8.905c1.004 0 1.766-.13 1.766-.706 0-.539-.576-.986-1.339-1.487l-3.104 2.193h2.677Zm5.242 2.287v-11.991h1.804v11.991h-1.804Zm13.85-2.621v2.268h-6.748v-2.268h1.078c-.242-.391-.372-.856-.372-1.432 0-1.636 1.209-3.142 3.161-3.142 1.227 0 2.156.781 2.509 1.581l-.929 1.431c-.353-.353-.93-.799-1.748-.799-1.078 0-1.617.613-1.617 1.227 0 .557.651 1.152 2.026 1.152h2.64v-.018Zm1.84 2.621v-11.991h1.804v11.991h-1.804Zm21.472-6.488c.316.855.595 2.082.595 2.993 0 2.231-1.227 3.476-3.16 3.476-1.339 0-2.175-.52-2.491-1.561-.372 1.059-1.264 1.561-2.491 1.561-1.376 0-2.399-.52-2.696-1.729h-3.067c0 2.938-1.766 5.261-4.629 5.261-.744 0-1.357-.13-1.618-.223l.149-2.1a8.29 8.29 0 0 0 1.153.074c2.268 0 3.234-1.45 3.234-2.77 0-.93-.372-2.101-.762-3.569l1.71-.465c.168.52.335 1.06.447 1.58h3.234v-1.506h1.729v1.878c0 1.078.632 1.283 1.506 1.283.911 0 1.506-.242 1.506-1.45v-1.711h1.747v1.711c0 1.208.577 1.45 1.45 1.45.893 0 1.339-.465 1.339-1.172 0-.632-.298-1.71-.502-2.453l1.617-.558Zm-6.767-1.134a.87.87 0 0 1 .893-.893.87.87 0 0 1 .892.893.866.866 0 0 1-.892.874.866.866 0 0 1-.893-.874Zm1.079-2.008c0-.483.39-.892.911-.892.52 0 .873.409.873.892 0 .502-.39.892-.873.892a.896.896 0 0 1-.911-.892Zm2.007 1.134c.521 0 .874.39.874.892a.85.85 0 0 1-.874.874c-.52 0-.911-.372-.911-.874s.391-.892.911-.892Z"/>
      <path fill="#FF004C" d="m704.417 188.443-68.896.007-74.473 73.448-.001 69.57 143.37-143.025Z"/>
      <path fill="#fff" d="M597.122 261.114c2.156 2.188 2.059 4.968-1.007 7.972l-5.102 5.011c1.625 2.622 1.196 5.608-1.482 8.231-3.014 2.96-6.422 2.934-8.958.358a11.847 11.847 0 0 1-2.754-4.496l1.866-.866c.382 1.06 1.219 2.5 2.043 3.342 1.757 1.803 3.832 1.456 5.871-.533 2.037-2.008 2.435-4.111.89-5.695-1.057-1.077-2.543-1.976-4.309-3.03l1.195-2.006c1.322.768 2.608 1.558 3.708 2.518l.084-.084c-1.333-4.844-1.103-8.762 1.186-11.023 1.985-1.964 4.973-1.516 6.769.301Zm-2.805 5.631c1.633-1.607 2.416-3.117 1.548-4.011-.761-.774-2.404-.906-3.734.404-1.784 1.755-2.081 4.594-1.638 7.351l3.824-3.744Zm-2.889-14.622 1.649-1.627 7.359 7.493c1.141 1.162 2.05.76 2.993-.17l.084-.084.313-.204 1.864 2.09-.208.304-.068.064c-1.936 1.903-4.028 2.271-5.992.285l-7.994-8.151Z"/>
      <path fill="#fff" d="M599.933 247.588c-.506-.504-.541-1.305.031-1.875.555-.549 1.348-.489 1.854.015s.54 1.305-.015 1.854c-.572.57-1.381.53-1.87.006Zm11.494-3.414 1.901 2.254-2.643 2.6c-1.005 5.839-2.513 8.217-5.24 10.902l-.314.204-1.864-2.091.209-.304c1.751-1.714 3.616-3.758 5.169-8.386-.304.128-.646.241-1.007.357-1.279.444-2.612.894-3.739 2.013-1.027 1.014-1.316 2.094-1.464 2.766l-1.991-.729c-.158-.899.191-2.772 1.671-4.249 1.483-1.44 3.029-1.671 4.368-2.065 1.958-.559 2.313-.73 3.255-1.659l1.689-1.613Zm24.962-21.626c2.156 2.188 2.077 4.966-1.006 7.972l-5.103 5.011c1.625 2.622 1.196 5.608-1.463 8.229-3.015 2.96-6.423 2.934-8.959.358a11.868 11.868 0 0 1-2.754-4.497l1.867-.865c.382 1.06 1.218 2.5 2.043 3.342 1.757 1.803 3.832 1.456 5.852-.531 2.037-2.008 2.435-4.111.89-5.695-1.057-1.077-2.543-1.976-4.309-3.03l1.195-2.006c1.34.766 2.608 1.558 3.709 2.518l.065-.082c-1.315-4.847-1.103-8.762 1.185-11.023 2.023-1.968 4.992-1.518 6.788.299Zm-10.101-1.14c-.506-.504-.54-1.305.032-1.874a1.282 1.282 0 0 1 1.854.014c.487.507.54 1.305-.015 1.854-.572.57-1.383.512-1.871.006Zm7.316 6.787c1.633-1.607 2.417-3.117 1.548-4.01-.761-.775-2.385-.909-3.733.403-1.785 1.755-2.079 4.613-1.638 7.351l3.823-3.744Zm10.911-10.719.334-.188 1.801 2.023-.186.339-1.281 1.249c1.491 2.432 1.386 5.306-.77 7.421-.674.656-1.355 1.088-1.691 1.257l-1.768-2.064a9.518 9.518 0 0 0 1.124-.987c2.071-2.031 1.695-4.196.512-5.39-1.036-1.062-2.687-2.091-4.535-3.379l1.14-1.999c1.455.957 2.894 1.936 4.037 2.948l1.283-1.23Z"/>
      <path fill="#fff" d="m652.309 209.803 2.051 2.088-7.896 7.759-.335.187-1.796-1.985.164-.374 1.6-1.566c-.897.008-1.781-.36-2.585-1.185-1.712-1.734-2.071-4.743.118-6.899 1.483-1.44 3.366-1.503 4.327-1.275l.538 2.278c-.782.032-1.991.263-2.898 1.17-1.162 1.141-1.252 2.667-.386 3.542 1.101 1.129 2.724.59 3.834-.509l3.264-3.231Z"/>
    </g>
  </g>
  <defs>
    <filter id="marketing__a" width="426.802" height="365.715" x="451.202" y="399.944" class="marketing__a" color-interpolation-filters="sRGB" filterUnits="userSpaceOnUse">
      <feFlood flood-opacity="0" result="BackgroundImageFix"/>
      <feColorMatrix in="SourceAlpha" result="hardAlpha" values="0 0 0 0 0 0 0 0 0 0 0 0 0 0 0 0 0 0 127 0"/>
      <feOffset dy="2"/>
      <feGaussianBlur stdDeviation="2"/>
      <feComposite in2="hardAlpha" operator="out"/>
      <feColorMatrix values="0 0 0 0 0 0 0 0 0 0 0 0 0 0 0 0 0 0 0.15 0"/>
      <feBlend in2="BackgroundImageFix" result="effect1_dropShadow_15_1259"/>
      <feBlend in="SourceGraphic" in2="effect1_dropShadow_15_1259" result="shape"/>
    </filter>
    <filter id="marketing__b" width="426.802" height="332.903" x="16.446" y="526.209" class="marketing__b" color-interpolation-filters="sRGB" filterUnits="userSpaceOnUse">
      <feFlood flood-opacity="0" result="BackgroundImageFix"/>
      <feColorMatrix in="SourceAlpha" result="hardAlpha" values="0 0 0 0 0 0 0 0 0 0 0 0 0 0 0 0 0 0 127 0"/>
      <feOffset dy="2"/>
      <feGaussianBlur stdDeviation="2"/>
      <feComposite in2="hardAlpha" operator="out"/>
      <feColorMatrix values="0 0 0 0 0 0 0 0 0 0 0 0 0 0 0 0 0 0 0.15 0"/>
      <feBlend in2="BackgroundImageFix" result="effect1_dropShadow_15_1259"/>
      <feBlend in="SourceGraphic" in2="effect1_dropShadow_15_1259" result="shape"/>
    </filter>
    <filter id="marketing__c" width="426.746" height="179.465" x="556.947" y="186.443" class="marketing__c" color-interpolation-filters="sRGB" filterUnits="userSpaceOnUse">
      <feFlood flood-opacity="0" result="BackgroundImageFix"/>
      <feColorMatrix in="SourceAlpha" result="hardAlpha" values="0 0 0 0 0 0 0 0 0 0 0 0 0 0 0 0 0 0 127 0"/>
      <feOffset dy="2"/>
      <feGaussianBlur stdDeviation="2"/>
      <feComposite in2="hardAlpha" operator="out"/>
      <feColorMatrix values="0 0 0 0 0 0 0 0 0 0 0 0 0 0 0 0 0 0 0.15 0"/>
      <feBlend in2="BackgroundImageFix" result="effect1_dropShadow_15_1259"/>
      <feBlend in="SourceGraphic" in2="effect1_dropShadow_15_1259" result="shape"/>
    </filter>
  </defs>
</svg>
